<svg width="500" height="500" viewBox="0 0 500 500" fill="none" xmlns="http://www.w3.org/2000/svg">
<path d="M500 0H0V500H500V0Z" fill="url(#paint0_linear_276_114)"/>
<path d="M500 306.27V416.984L402.262 429.762L389.166 500H263.849L240.516 450.913L43.2141 476.746C22.8966 479.365 11.0712 454.524 25.9522 440.476L67.0236 401.548L170.397 303.611L149.127 258.889L84.8808 123.929C76.0712 105.476 96.0713 86.5476 114.008 96.3095L287.738 190.794L288.809 191.389L329.96 152.421L433.254 54.5635C448.135 40.4762 472.301 53.6508 468.532 73.7302L446.27 193.413C437.857 238.69 459.524 284.246 500 306.27Z" fill="url(#paint1_linear_276_114)"/>
<path d="M285.277 474.484L261.746 395.317L179.166 393.214C158.73 392.698 150.873 366.31 167.738 354.722L235.754 307.897L212.222 228.73C206.388 209.127 229.047 193.492 245.317 205.952L310.873 256.19L378.888 209.365C395.753 197.778 417.579 214.484 410.793 233.77L383.293 311.667L448.849 361.905C465.079 374.325 455.912 400.278 435.476 399.762L352.896 397.659L325.396 475.556C318.571 494.841 291.071 494.167 285.238 474.524L285.277 474.484Z" fill="url(#paint2_linear_276_114)"/>
<path d="M349.206 17.8571C349.206 69.3651 307.46 111.111 255.952 111.111C204.444 111.111 162.698 69.3651 162.698 17.8571C162.698 11.746 163.293 5.79365 164.444 0H347.46C348.611 5.79365 349.206 11.746 349.206 17.8571Z" fill="url(#paint3_linear_276_114)"/>
<path d="M87.3016 267.857C87.3016 317.381 48.7302 357.857 0 360.913V174.802C48.7302 177.857 87.3016 218.333 87.3016 267.857Z" fill="url(#paint4_linear_276_114)"/>
<defs>
<linearGradient id="paint0_linear_276_114" x1="0" y1="250" x2="500" y2="250" gradientUnits="userSpaceOnUse">
<stop stop-color="#05FFD6"/>
<stop offset="1" stop-color="#007D57"/>
</linearGradient>
<linearGradient id="paint1_linear_276_114" x1="19.2855" y1="274.325" x2="500" y2="274.325" gradientUnits="userSpaceOnUse">
<stop stop-color="#05FFD6"/>
<stop offset="1" stop-color="#00A557"/>
</linearGradient>
<linearGradient id="paint2_linear_276_114" x1="217.782" y1="207.339" x2="388.404" y2="439.869" gradientUnits="userSpaceOnUse">
<stop stop-color="#05FFD6"/>
<stop offset="1" stop-color="#00A557"/>
</linearGradient>
<linearGradient id="paint3_linear_276_114" x1="162.698" y1="55.5556" x2="349.206" y2="55.5556" gradientUnits="userSpaceOnUse">
<stop stop-color="#05FFD6"/>
<stop offset="1" stop-color="#00A557"/>
</linearGradient>
<linearGradient id="paint4_linear_276_114" x1="0" y1="267.857" x2="87.3016" y2="267.857" gradientUnits="userSpaceOnUse">
<stop stop-color="#05FFD6"/>
<stop offset="1" stop-color="#00A557"/>
</linearGradient>
</defs>
</svg>
