<svg width="126" height="126" viewBox="0 0 126 126" fill="none" xmlns="http://www.w3.org/2000/svg">
<path d="M126 0H0V126H126V0Z" fill="url(#paint0_linear_276_111)"/>
<path d="M126 77.18V105.08L101.37 108.3L98.07 126H66.49L60.61 113.63L10.89 120.14C5.76999 120.8 2.78999 114.54 6.53999 111L16.89 101.19L42.94 76.51L37.58 65.24L21.39 31.23C19.17 26.58 24.21 21.81 28.73 24.27L72.51 48.08L72.78 48.23L83.15 38.41L109.18 13.75C112.93 10.2 119.02 13.52 118.07 18.58L112.46 48.74C110.34 60.15 115.8 71.63 126 77.18Z" fill="url(#paint1_linear_276_111)"/>
<path d="M71.8899 119.57L65.9599 99.62L45.1499 99.09C39.9999 98.96 38.0199 92.31 42.2699 89.39L59.4099 77.59L53.4799 57.64C52.0099 52.7 57.7199 48.76 61.8199 51.9L78.3399 64.56L95.4799 52.76C99.7299 49.84 105.23 54.05 103.52 58.91L96.5899 78.54L113.11 91.2C117.2 94.33 114.89 100.87 109.74 100.74L88.9299 100.21L81.9999 119.84C80.2799 124.7 73.3499 124.53 71.8799 119.58L71.8899 119.57Z" fill="url(#paint2_linear_276_111)"/>
<path d="M88 4.5C88 17.48 77.48 28 64.5 28C51.52 28 41 17.48 41 4.5C41 2.96 41.15 1.46 41.44 0H87.56C87.85 1.46 88 2.96 88 4.5Z" fill="url(#paint3_linear_276_111)"/>
<path d="M22 67.5C22 79.98 12.28 90.18 0 90.95V44.05C12.28 44.82 22 55.02 22 67.5Z" fill="url(#paint4_linear_276_111)"/>
<path d="M106.78 65.25C106.65 66.29 106.46 67.33 106.13 68.37C106 68.82 105.81 69.21 105.68 69.67C105.16 71.03 104.45 72.4 103.54 73.63C102.83 74.67 101.98 75.71 101.01 76.62L98.9999 78.57L88.7399 88.37L85.1099 91.81L84.2699 92.65L81.7999 94.99C79.7899 92.91 78.0399 90.64 76.5399 88.3C75.8899 87.33 75.3099 86.35 74.7199 85.31C73.6199 83.36 72.7099 81.29 71.9299 79.21C70.1799 74.6 69.2699 69.8 69.0699 64.99C68.9399 64.02 68.9399 62.98 68.9399 62C68.9999 59.79 69.1999 57.52 69.5899 55.31C70.1099 52 71.0199 48.75 72.2499 45.64C72.7699 44.47 73.2899 43.3 73.8699 42.13C74.4499 40.9 75.1699 39.79 75.7499 38.75C77.8899 35.37 79.9699 32.97 80.4199 32.45C81.4599 31.28 82.4299 30.31 83.1499 29.59C84.1899 30.69 85.2299 31.73 86.2699 32.84C88.2199 34.85 90.0999 36.86 92.0499 38.88L87.1199 43.62L82.3799 48.1C79.5199 50.89 77.6399 54.27 76.7999 57.97C76.4099 59.33 76.2799 60.76 76.2199 62.19C76.2199 64.4 76.4799 66.54 77.1899 68.68C78.0999 71.47 79.6599 74.13 81.8599 76.47L85.9499 72.51L90.1699 68.49L94.1299 64.73L94.5799 64.28L95.8099 63.11C96.2599 62.66 96.7799 62.14 97.1699 61.62C99.7699 58.63 101.26 55 101.78 51.17C101.84 50.52 101.91 49.87 101.91 49.22C102.17 49.54 102.43 49.8 102.69 50.13C103.4 50.97 103.99 51.88 104.51 52.86C106.65 56.62 107.43 61.04 106.78 65.26V65.25Z" fill="white"/>
<path d="M103.53 73.62C102.82 74.66 101.97 75.7 101 76.61L98.9899 78.56L88.7299 88.36L76.2699 82.84C76.0799 82.71 75.8199 82.84 75.7499 83.03L74.7099 85.3C71.2799 75.88 69.3499 68.46 69.0599 64.98C68.9299 63.44 68.9299 61.99 68.9299 61.99C68.9899 59.78 69.1899 57.51 69.5799 55.3C70.0999 51.99 71.0099 48.74 72.2399 45.63C72.7599 44.46 73.2799 43.29 73.8599 42.12C74.4399 40.89 75.1599 39.78 75.7399 38.74L86.2599 32.83C88.2099 34.84 90.0899 36.85 92.0399 38.87L87.1099 43.61L82.3699 48.09C79.5099 50.88 77.6299 54.26 76.7899 57.96C76.3999 59.32 76.2699 60.75 76.2099 62.18C76.2099 64.39 76.4699 66.53 77.1799 68.67C78.0899 71.46 79.6499 74.12 81.8499 76.46L85.9399 72.5L90.1599 68.48L94.1199 64.72L103.53 73.61V73.62Z" fill="white"/>
<path d="M69.9099 72.17C69.3699 69.56 69.2999 66.71 69.0699 64.99C68.9399 64.02 68.9399 62.9801 68.9399 62.0001C68.9999 59.7901 69.1999 57.52 69.5899 55.31C70.1099 52 71.0199 48.7501 72.2499 45.6401C72.4199 45.3001 74.4899 41.3501 79.1299 40.7101C83.7999 40.0701 86.8599 43.35 87.1099 43.63L82.3699 48.1101C79.5099 50.9001 77.6299 54.2801 76.7899 57.9801C76.3999 59.3401 76.2699 60.77 76.2099 62.2C76.2099 64.41 76.4699 66.5501 77.1799 68.6901C78.0899 71.4801 79.6499 74.1401 81.8499 76.4801L85.9399 72.52L90.1599 68.5001C90.3599 69.5701 91.0399 73.8901 88.3899 77.4301C84.5599 82.5601 76.0799 82.9901 72.6299 79.6601C71.1499 78.2301 70.7299 76.21 69.8999 72.17H69.9099Z" fill="white"/>
<path d="M27.47 58.55C27.51 57.5 27.62 56.45 27.85 55.39C27.94 54.93 28.1 54.52 28.19 54.06C28.59 52.66 29.19 51.24 29.98 49.93C30.6 48.83 31.35 47.73 32.25 46.74L34.09 44.63L43.47 33.99L46.8 30.25L47.57 29.34L49.83 26.8C52.01 28.7 53.95 30.81 55.64 33.01C56.37 33.92 57.04 34.84 57.71 35.83C58.98 37.68 60.06 39.67 61.01 41.67C63.15 46.11 64.47 50.82 65.07 55.59C65.28 56.55 65.37 57.58 65.46 58.55C65.58 60.75 65.59 63.03 65.39 65.27C65.16 68.61 64.53 71.92 63.57 75.13C63.15 76.34 62.74 77.55 62.25 78.76C61.77 80.04 61.16 81.2 60.66 82.28C58.81 85.83 56.95 88.4 56.54 88.95C55.61 90.2 54.72 91.26 54.07 92.03C52.94 91.02 51.82 90.07 50.69 89.06C48.58 87.22 46.53 85.38 44.42 83.54L48.93 78.4L53.27 73.53C55.88 70.5 57.46 66.98 57.99 63.22C58.26 61.83 58.27 60.39 58.21 58.97C58.02 56.77 57.58 54.66 56.68 52.59C55.54 49.89 53.76 47.37 51.36 45.23L47.62 49.53L43.76 53.9L40.14 57.99L39.73 58.48L38.6 59.75C38.19 60.24 37.71 60.8 37.37 61.35C35.04 64.55 33.86 68.3 33.67 72.16C33.67 72.81 33.65 73.46 33.71 74.11C33.42 73.81 33.14 73.57 32.86 73.27C32.08 72.49 31.42 71.64 30.82 70.71C28.36 67.14 27.21 62.81 27.49 58.55H27.47Z" fill="white"/>
<path d="M27.47 58.55C27.51 57.5 27.62 56.45 27.85 55.39C27.94 54.93 28.1 54.52 28.19 54.06C28.59 52.66 29.19 51.24 29.98 49.93C30.6 48.83 31.35 47.73 32.25 46.74L34.09 44.63L43.47 33.99L46.8 30.25L47.57 29.34L49.83 26.8C52.01 28.7 53.95 30.81 55.64 33.01C56.37 33.92 57.04 34.84 57.71 35.83C58.98 37.68 60.06 39.67 61.01 41.67C63.15 46.11 64.47 50.82 65.07 55.59C65.28 56.55 65.37 57.58 65.46 58.55C65.58 60.75 65.59 63.03 65.39 65.27C65.16 68.61 64.53 71.92 63.57 75.13C63.15 76.34 62.74 77.55 62.25 78.76C61.77 80.04 61.16 81.2 60.66 82.28C58.81 85.83 56.95 88.4 56.54 88.95C55.61 90.2 54.72 91.26 54.07 92.03C52.94 91.02 51.82 90.07 50.69 89.06C48.58 87.22 46.53 85.38 44.42 83.54L48.93 78.4L53.27 73.53C55.88 70.5 57.46 66.98 57.99 63.22C58.26 61.83 58.27 60.39 58.21 58.97C58.02 56.77 57.58 54.66 56.68 52.59C55.54 49.89 53.76 47.37 51.36 45.23L47.62 49.53L43.76 53.9L40.14 57.99L39.73 58.48L38.6 59.75C38.19 60.24 37.71 60.8 37.37 61.35C35.04 64.55 33.86 68.3 33.67 72.16C33.67 72.81 33.65 73.46 33.71 74.11C33.42 73.81 33.14 73.57 32.86 73.27C32.08 72.49 31.42 71.64 30.82 70.71C28.36 67.14 27.21 62.81 27.49 58.55H27.47Z" fill="white"/>
<path d="M27.47 58.55C27.51 57.5 27.62 56.45 27.85 55.39C27.94 54.93 28.1 54.52 28.19 54.06C28.59 52.66 29.19 51.24 29.98 49.93C30.6 48.83 31.35 47.73 32.25 46.74L34.09 44.63L43.47 33.99L46.8 30.25L47.57 29.34L49.83 26.8C52.01 28.7 53.95 30.81 55.64 33.01C56.37 33.92 57.04 34.84 57.71 35.83C58.98 37.68 60.06 39.67 61.01 41.67C63.15 46.11 64.47 50.82 65.07 55.59C65.28 56.55 65.37 57.58 65.46 58.55C65.58 60.75 65.59 63.03 65.39 65.27C65.16 68.61 64.53 71.92 63.57 75.13C63.15 76.34 62.74 77.55 62.25 78.76C61.77 80.04 61.16 81.2 60.66 82.28C58.81 85.83 56.95 88.4 56.54 88.95C55.61 90.2 54.72 91.26 54.07 92.03C52.94 91.02 51.82 90.07 50.69 89.06C48.58 87.22 46.53 85.38 44.42 83.54L48.93 78.4L53.27 73.53C55.88 70.5 57.46 66.98 57.99 63.22C58.26 61.83 58.27 60.39 58.21 58.97C58.02 56.77 57.58 54.66 56.68 52.59C55.54 49.89 53.76 47.37 51.36 45.23L47.62 49.53L43.76 53.9L40.14 57.99L39.73 58.48L38.6 59.75C38.19 60.24 37.71 60.8 37.37 61.35C35.04 64.55 33.86 68.3 33.67 72.16C33.67 72.81 33.65 73.46 33.71 74.11C33.42 73.81 33.14 73.57 32.86 73.27C32.08 72.49 31.42 71.64 30.82 70.71L34.96 65.01C35.07 64.81 35.05 64.55 34.85 64.43L27.5 58.55H27.47Z" fill="white"/>
<path d="M29.98 49.93C30.6 48.83 31.35 47.73 32.25 46.74L34.09 44.63L43.47 33.99L56.36 38.42C56.56 38.53 56.81 38.38 56.86 38.18L57.7 35.83C58.97 37.68 60.05 39.67 61 41.67C63.14 46.11 64.46 50.82 65.06 55.59C65.27 56.55 65.36 57.58 65.45 58.55C65.57 60.75 65.58 63.03 65.38 65.27C65.15 68.61 64.52 71.92 63.56 75.13C63.14 76.34 62.73 77.55 62.24 78.76C61.76 80.04 61.15 81.2 60.65 82.28L50.68 89.07C48.57 87.23 46.52 85.39 44.41 83.55L48.92 78.41L53.26 73.54C55.87 70.51 57.45 66.99 57.98 63.23C58.25 61.84 58.26 60.4 58.2 58.98C58.01 56.78 57.57 54.67 56.67 52.6C55.53 49.9 53.75 47.38 51.35 45.24L47.61 49.54L43.75 53.91L40.13 58L29.99 49.95L29.98 49.93Z" fill="white"/>
<path d="M63.61 48.4899C64.35 50.9499 64.7 53.94 65.07 55.57C65.28 56.53 65.37 57.5599 65.46 58.5299C65.58 60.7299 65.59 63.01 65.39 65.25C65.16 68.59 64.53 71.9 63.57 75.11C63.21 75.61 59.63 80.3099 54.05 80.0599C51.71 79.9599 49.93 79.0199 48.94 78.3899L53.28 73.5199C55.89 70.4899 57.47 66.9699 58 63.2099C58.27 61.8199 58.28 60.3799 58.22 58.9599C58.03 56.7599 57.59 54.65 56.69 52.58C55.55 49.88 53.77 47.36 51.37 45.22L47.64 49.5199L43.78 53.8899C41.52 49.3099 42.78 43.7699 46.71 40.7099C50.93 37.4199 56.65 38.2099 59.69 40.7099C61.84 42.4699 62.61 45.0499 63.64 48.4899H63.61Z" fill="white"/>
<defs>
<linearGradient id="paint0_linear_276_111" x1="0" y1="63" x2="126" y2="63" gradientUnits="userSpaceOnUse">
<stop stop-color="#05FFD6"/>
<stop offset="1" stop-color="#007D57"/>
</linearGradient>
<linearGradient id="paint1_linear_276_111" x1="4.85999" y1="69.13" x2="126" y2="69.13" gradientUnits="userSpaceOnUse">
<stop stop-color="#05FFD6"/>
<stop offset="1" stop-color="#00A557"/>
</linearGradient>
<linearGradient id="paint2_linear_276_111" x1="54.8811" y1="52.2496" x2="97.878" y2="110.847" gradientUnits="userSpaceOnUse">
<stop stop-color="#05FFD6"/>
<stop offset="1" stop-color="#00A557"/>
</linearGradient>
<linearGradient id="paint3_linear_276_111" x1="41" y1="14" x2="88" y2="14" gradientUnits="userSpaceOnUse">
<stop stop-color="#05FFD6"/>
<stop offset="1" stop-color="#00A557"/>
</linearGradient>
<linearGradient id="paint4_linear_276_111" x1="0" y1="67.5" x2="22" y2="67.5" gradientUnits="userSpaceOnUse">
<stop stop-color="#05FFD6"/>
<stop offset="1" stop-color="#00A557"/>
</linearGradient>
</defs>
</svg>
