<svg width="2147" height="613" viewBox="0 0 2147 613" fill="none" xmlns="http://www.w3.org/2000/svg">
<g clip-path="url(#clip0_277_129)">
<rect width="2147" height="613" fill="white"/>
<path d="M2147 0H0V613H2147V0Z" fill="url(#paint0_linear_277_129)"/>
<path d="M1686.55 373.452C1684.54 389.558 1681.6 405.664 1676.49 421.77C1674.48 428.738 1671.53 434.778 1669.52 441.902C1661.47 462.963 1650.47 484.18 1636.38 503.228C1625.38 519.334 1612.22 535.44 1597.2 549.532L1566.07 579.731L1407.18 731.498L1350.96 784.771L1337.96 797.779L1299.7 834.018C1268.58 801.806 1241.48 766.652 1218.25 730.414C1208.18 715.392 1199.2 700.215 1190.06 684.109C1173.03 653.911 1158.93 621.854 1146.85 589.642C1119.75 518.25 1105.66 443.915 1102.56 369.425C1100.55 354.404 1100.55 338.298 1100.55 323.121C1101.48 288.896 1104.58 253.742 1110.62 219.517C1118.67 168.257 1132.76 117.926 1151.81 69.7634C1159.86 51.6443 1167.91 33.5252 1176.9 15.4061C1185.88 -3.64218 1197.03 -20.832 1206.01 -36.9379C1239.15 -89.282 1271.36 -126.449 1278.33 -134.502C1294.44 -152.621 1309.46 -167.643 1320.61 -178.793C1336.72 -161.758 1352.82 -145.653 1368.93 -128.463C1399.13 -97.335 1428.24 -66.2073 1458.44 -34.9247L1382.09 38.4809L1308.69 107.86C1264.4 151.067 1235.28 203.411 1222.27 260.711C1216.23 281.772 1214.22 303.918 1213.29 326.064C1213.29 360.288 1217.32 393.429 1228.31 426.57C1242.4 469.777 1266.56 510.971 1300.63 547.209L1363.97 485.883L1429.33 423.628L1490.65 365.399L1497.62 358.43L1516.67 340.311C1523.64 333.342 1531.69 325.289 1537.73 317.236C1577.99 270.932 1601.07 214.716 1609.12 155.403C1610.05 145.337 1611.14 135.271 1611.14 125.205C1615.16 130.16 1619.19 134.187 1623.22 139.297C1634.21 152.306 1643.35 166.399 1651.4 181.575C1684.54 239.804 1696.62 308.254 1686.55 373.607V373.452Z" fill="white" fill-opacity="0.1"/>
<path d="M1636.22 503.072C1625.23 519.178 1612.07 535.284 1597.04 549.376L1565.92 579.575L1407.03 731.342L1214.06 645.857C1211.12 643.843 1207.1 645.857 1206.01 648.799L1189.91 683.953C1136.79 538.071 1106.9 423.162 1102.41 369.27C1100.39 345.421 1100.39 322.965 1100.39 322.965C1101.32 288.74 1104.42 253.586 1110.46 219.361C1118.51 168.101 1132.61 117.77 1151.65 69.6075C1159.71 51.4884 1167.76 33.3694 1176.74 15.2503C1185.72 -3.79796 1196.87 -20.9879 1205.86 -37.0938L1368.77 -128.618C1398.97 -97.4907 1428.09 -66.363 1458.29 -35.0805L1381.94 38.325L1308.53 107.704C1264.24 150.911 1235.13 203.255 1222.12 260.555C1216.08 281.616 1214.06 303.762 1213.14 325.908C1213.14 360.133 1217.16 393.273 1228.16 426.414C1242.25 469.621 1266.41 510.815 1300.48 547.053L1363.82 485.727L1429.17 423.472L1490.5 365.243L1636.22 502.917V503.072Z" fill="white" fill-opacity="0.1"/>
<path d="M1115.57 480.618C1107.21 440.199 1106.12 396.063 1102.56 369.426C1100.55 354.404 1100.55 338.298 1100.55 323.122C1101.48 288.897 1104.58 253.743 1110.62 219.518C1118.67 168.258 1132.76 117.927 1151.81 69.764C1154.44 64.4987 1186.5 3.32734 1258.36 -6.58396C1330.68 -16.4953 1378.07 34.3001 1381.94 38.6363L1308.53 108.015C1264.24 151.223 1235.13 203.567 1222.12 260.866C1216.08 281.928 1214.06 304.073 1213.14 326.219C1213.14 360.444 1217.16 393.585 1228.16 426.726C1242.25 469.933 1266.41 511.127 1300.48 547.365L1363.82 486.039L1429.17 423.783C1432.27 440.354 1442.8 507.255 1401.76 562.077C1342.45 641.522 1211.12 648.181 1157.69 596.612C1134.77 574.466 1128.27 543.184 1115.42 480.618H1115.57Z" fill="white" fill-opacity="0.1"/>
<path d="M458.329 269.693C458.948 253.433 460.652 237.172 464.214 220.756C465.607 213.633 468.085 207.283 469.479 200.159C475.674 178.478 484.966 156.488 497.2 136.201C506.801 119.165 518.416 102.13 532.354 86.7989L560.849 54.1226L706.111 -110.653L757.681 -168.572L769.606 -182.665L804.605 -222C838.365 -192.576 868.409 -159.9 894.581 -125.829C905.886 -111.737 916.262 -97.4893 926.638 -82.1578C946.306 -53.5079 963.031 -22.69 977.743 8.28281C1010.88 77.0424 1031.33 149.983 1040.62 223.854C1043.87 238.721 1045.26 254.672 1046.66 269.693C1048.52 303.764 1048.67 339.072 1045.57 373.762C1042.01 425.487 1032.26 476.747 1017.39 526.458C1010.88 545.197 1004.53 563.935 996.946 582.674C989.513 602.496 980.066 620.461 972.323 637.186C943.673 692.163 914.868 731.963 908.519 740.48C894.116 759.838 880.333 776.254 870.267 788.178C852.768 772.537 835.423 757.825 817.923 742.184C785.247 713.689 753.5 685.194 720.823 656.699L790.667 577.098L857.878 501.68C898.298 454.756 922.766 400.244 930.974 342.015C935.155 320.489 935.31 298.188 934.381 276.198C931.439 242.128 924.625 209.451 910.687 177.394C893.032 135.581 865.466 96.5554 828.299 63.4145L770.38 130.006L710.602 197.682L654.542 261.021L648.192 268.609L630.693 288.277C624.343 295.865 616.91 304.538 611.644 313.055C575.561 362.612 557.287 420.686 554.345 480.463C554.345 490.53 554.035 500.596 554.964 510.662C550.473 506.016 546.137 502.299 541.801 497.653C529.721 485.574 519.5 472.41 510.208 458.008C472.112 402.722 454.302 335.666 458.639 269.693H458.329Z" fill="white" fill-opacity="0.1"/>
<path d="M458.329 269.693C458.948 253.433 460.652 237.172 464.214 220.756C465.607 213.633 468.085 207.283 469.479 200.159C475.674 178.478 484.966 156.488 497.2 136.201C506.801 119.165 518.416 102.13 532.354 86.7989L560.849 54.1226L706.111 -110.653L757.681 -168.572L769.606 -182.665L804.605 -222C838.365 -192.576 868.409 -159.9 894.581 -125.829C905.886 -111.737 916.262 -97.4893 926.638 -82.1578C946.306 -53.5079 963.031 -22.69 977.743 8.28281C1010.88 77.0424 1031.33 149.983 1040.62 223.854C1043.87 238.721 1045.26 254.672 1046.66 269.693C1048.52 303.764 1048.67 339.072 1045.57 373.762C1042.01 425.487 1032.26 476.747 1017.39 526.458C1010.88 545.197 1004.53 563.935 996.946 582.674C989.513 602.496 980.066 620.461 972.323 637.186C943.673 692.163 914.868 731.963 908.519 740.48C894.116 759.838 880.333 776.254 870.267 788.178C852.768 772.537 835.423 757.825 817.923 742.184C785.247 713.689 753.5 685.194 720.823 656.699L790.667 577.098L857.878 501.68C898.298 454.756 922.766 400.244 930.974 342.015C935.155 320.489 935.31 298.188 934.381 276.198C931.439 242.128 924.625 209.451 910.687 177.394C893.032 135.581 865.466 96.5554 828.299 63.4145L770.38 130.006L710.602 197.682L654.542 261.021L648.192 268.609L630.693 288.277C624.343 295.865 616.91 304.538 611.644 313.055C575.561 362.612 557.287 420.686 554.345 480.463C554.345 490.53 554.035 500.596 554.964 510.662C550.473 506.016 546.137 502.299 541.801 497.653C529.721 485.574 519.5 472.41 510.208 458.008C472.112 402.722 454.302 335.666 458.639 269.693H458.329Z" fill="white" fill-opacity="0.1"/>
<path d="M458.329 269.693C458.948 253.433 460.652 237.172 464.213 220.756C465.607 213.633 468.085 207.283 469.479 200.159C475.673 178.478 484.965 156.488 497.2 136.201C506.801 119.165 518.416 102.13 532.354 86.7989L560.849 54.1226L706.111 -110.653L757.681 -168.572L769.605 -182.665L804.605 -222C838.365 -192.576 868.409 -159.9 894.581 -125.829C905.886 -111.737 916.262 -97.4893 926.638 -82.1578C946.305 -53.5079 963.031 -22.69 977.743 8.28281C1010.88 77.0424 1031.33 149.983 1040.62 223.854C1043.87 238.721 1045.26 254.672 1046.66 269.693C1048.52 303.764 1048.67 339.072 1045.57 373.762C1042.01 425.487 1032.25 476.747 1017.39 526.458C1010.88 545.197 1004.53 563.935 996.946 582.674C989.512 602.496 980.066 620.461 972.323 637.186C943.673 692.163 914.868 731.963 908.518 740.48C894.116 759.838 880.333 776.254 870.267 788.178C852.767 772.537 835.423 757.825 817.923 742.184C785.247 713.689 753.499 685.194 720.823 656.699L790.667 577.098L857.878 501.68C898.297 454.756 922.766 400.244 930.974 342.015C935.155 320.489 935.31 298.188 934.381 276.198C931.438 242.128 924.624 209.451 910.687 177.394C893.032 135.581 865.466 96.5554 828.299 63.4145L770.38 130.006L710.602 197.682L654.541 261.021L648.192 268.609L630.692 288.277C624.343 295.865 616.909 304.538 611.644 313.055C575.561 362.612 557.287 420.686 554.344 480.463C554.344 490.53 554.035 500.596 554.964 510.662C550.473 506.016 546.137 502.299 541.8 497.653C529.721 485.574 519.5 472.41 510.208 458.008L574.322 369.736C576.025 366.638 575.716 362.612 572.618 360.753L458.793 269.693H458.329Z" fill="white" fill-opacity="0.1"/>
<path d="M497.2 136.2C506.802 119.165 518.417 102.129 532.354 86.7979L560.849 54.1216L706.112 -110.654L905.732 -42.049C908.829 -40.3455 912.7 -42.6684 913.475 -45.7657L926.483 -82.1588C946.151 -53.5089 962.876 -22.691 977.588 8.28181C1010.73 77.0415 1031.17 149.982 1040.46 223.853C1043.72 238.72 1045.11 254.671 1046.5 269.692C1048.36 303.763 1048.52 339.071 1045.42 373.761C1041.86 425.486 1032.1 476.746 1017.23 526.457C1010.73 545.196 1004.38 563.934 996.792 582.673C989.358 602.495 979.911 620.46 972.168 637.185L817.769 742.338C785.092 713.843 753.345 685.348 720.669 656.853L790.513 577.253L857.724 501.834C898.143 454.91 922.612 400.398 930.82 342.169C935.001 320.643 935.156 298.342 934.226 276.352C931.284 242.282 924.47 209.605 910.532 177.548C892.878 135.735 865.312 96.7092 828.145 63.5683L770.225 130.16L710.448 197.836L654.387 261.175L497.355 136.509L497.2 136.2Z" fill="white" fill-opacity="0.1"/>
<path d="M1018.01 113.899C1029.47 151.995 1034.89 198.3 1040.62 223.542C1043.87 238.409 1045.26 254.36 1046.66 269.382C1048.52 303.452 1048.67 338.761 1045.57 373.451C1042.01 425.176 1032.26 476.435 1017.39 526.147C1011.81 533.89 956.373 606.676 869.959 602.805C833.721 601.256 806.155 586.699 790.823 576.942L858.034 501.523C898.454 454.6 922.922 400.087 931.13 341.859C935.311 320.333 935.466 298.032 934.537 276.041C931.595 241.971 924.781 209.295 910.843 177.238C893.188 135.425 865.623 96.3991 828.455 63.2582L770.691 129.85L710.913 197.525C675.914 126.598 695.427 40.8029 756.288 -6.58555C821.641 -57.5358 910.223 -45.3016 957.302 -6.58555C990.598 20.6705 1002.52 60.6254 1018.47 113.899H1018.01Z" fill="white" fill-opacity="0.1"/>
<path d="M2228.73 311.161V500.409L2061.66 522.25L2039.28 642.311H1825.07L1785.18 558.404L1447.93 602.562C1413.2 607.039 1392.99 564.577 1418.42 540.565L1488.63 474.023L1665.33 306.616L1628.97 230.171L1519.15 -0.522125C1504.09 -32.0635 1538.28 -64.4188 1568.94 -47.7325L1865.9 113.773L1867.73 114.79L1938.08 48.1804L2114.64 -119.09C2140.08 -143.17 2181.38 -120.651 2174.94 -86.3282L2136.89 118.25C2122.51 195.645 2159.54 273.514 2228.73 311.161Z" fill="url(#paint1_linear_277_129)"/>
<path d="M1861.7 598.697L1821.47 463.374L1680.32 459.779C1645.38 458.897 1631.95 413.79 1660.78 393.983L1777.04 313.943L1736.82 178.62C1726.85 145.112 1765.58 118.386 1793.39 139.685L1905.45 225.559L2021.71 145.519C2050.54 125.712 2087.85 154.269 2076.25 187.235L2029.24 320.387L2141.3 406.26C2169.04 427.491 2153.37 471.853 2118.44 470.971L1977.28 467.376L1930.27 600.528C1918.61 633.494 1871.6 632.341 1861.63 598.764L1861.7 598.697Z" fill="url(#paint2_linear_277_129)"/>
<path d="M749 -8.94643C749 129.661 636.637 242 498 242C359.363 242 247 129.661 247 -8.94643C247 -25.3914 248.602 -41.4093 251.7 -57H744.3C747.398 -41.4093 749 -25.3914 749 -8.94643Z" fill="url(#paint3_linear_277_129)"/>
<path d="M215 459.5C215 610.91 97.0345 734.658 -52 744V175C97.0345 184.342 215 308.09 215 459.5Z" fill="url(#paint4_linear_277_129)"/>
</g>
<defs>
<linearGradient id="paint0_linear_277_129" x1="0" y1="306.5" x2="2147" y2="306.5" gradientUnits="userSpaceOnUse">
<stop stop-color="#05FFD6"/>
<stop offset="1" stop-color="#007D57"/>
</linearGradient>
<linearGradient id="paint1_linear_277_129" x1="1407.03" y1="256.557" x2="2228.73" y2="256.557" gradientUnits="userSpaceOnUse">
<stop stop-color="#05FFD6"/>
<stop offset="1" stop-color="#00A557"/>
</linearGradient>
<linearGradient id="paint2_linear_277_129" x1="1746.33" y1="142.056" x2="2037.98" y2="539.527" gradientUnits="userSpaceOnUse">
<stop stop-color="#05FFD6"/>
<stop offset="1" stop-color="#00A557"/>
</linearGradient>
<linearGradient id="paint3_linear_277_129" x1="247" y1="92.5" x2="749" y2="92.5" gradientUnits="userSpaceOnUse">
<stop stop-color="#05FFD6"/>
<stop offset="1" stop-color="#00A557"/>
</linearGradient>
<linearGradient id="paint4_linear_277_129" x1="-52" y1="459.5" x2="215" y2="459.5" gradientUnits="userSpaceOnUse">
<stop stop-color="#05FFD6"/>
<stop offset="1" stop-color="#00A557"/>
</linearGradient>
<clipPath id="clip0_277_129">
<rect width="2147" height="613" fill="white"/>
</clipPath>
</defs>
</svg>
