<svg width="87" height="74" viewBox="0 0 87 74" fill="none" xmlns="http://www.w3.org/2000/svg">
<path d="M86.4399 41.7399C86.2999 42.8699 86.0899 43.9899 85.7399 45.1199C85.5999 45.6099 85.3899 46.0399 85.2499 46.5299C84.6899 48.0099 83.9099 49.4899 82.9299 50.8299C82.1599 51.9599 81.2399 53.08 80.1799 54.07L77.9999 56.1799L66.8699 66.82L62.9299 70.5499L62.0099 71.4699L59.3299 74.0099C57.1499 71.7599 55.2399 69.2899 53.6199 66.7499C52.9199 65.6899 52.2799 64.6399 51.6499 63.5099C50.4499 61.3999 49.4699 59.1399 48.6199 56.8899C46.7199 51.8899 45.7299 46.6799 45.5199 41.4599C45.3799 40.3999 45.3799 39.2799 45.3799 38.2199C45.4499 35.8299 45.6599 33.3599 46.0799 30.9599C46.6399 27.3699 47.6299 23.8499 48.9699 20.4599C49.5299 19.1899 50.0999 17.92 50.7299 16.66C51.3599 15.32 52.1399 14.1199 52.7699 12.9999C55.0899 9.33995 57.3499 6.72994 57.8399 6.16994C58.9699 4.89994 60.0199 3.84995 60.7999 3.06995C61.9299 4.26995 63.0499 5.38994 64.1799 6.58994C66.2899 8.76994 68.3399 10.9599 70.4499 13.1399L65.0999 18.2799L59.9599 23.1399C56.8599 26.1699 54.8199 29.8299 53.8999 33.8499C53.4799 35.3299 53.3399 36.8799 53.2699 38.4299C53.2699 40.8199 53.5499 43.1499 54.3299 45.4699C55.3199 48.4999 57.0099 51.3899 59.3999 53.9199L63.8399 49.6199L68.4199 45.2499L72.7199 41.16L73.2099 40.6699L74.5499 39.3999C75.0399 38.9099 75.6099 38.3399 76.0299 37.7799C78.8499 34.5399 80.4699 30.5999 81.0299 26.4399C81.0999 25.7399 81.1699 25.0299 81.1699 24.3299C81.4499 24.6799 81.7299 24.9599 82.0199 25.3199C82.7899 26.2399 83.4299 27.2199 83.9899 28.2799C86.3099 32.3699 87.1599 37.1599 86.4599 41.7299L86.4399 41.7399Z" fill="url(#paint0_linear_276_113)"/>
<path d="M82.9101 50.83C82.1401 51.96 81.2201 53.08 80.1601 54.07L77.9801 56.18L66.8501 66.82L53.3301 60.83C53.1201 60.69 52.8401 60.83 52.7701 61.04L51.6401 63.51C47.9201 53.28 45.8301 45.23 45.5101 41.46C45.3701 39.78 45.3701 38.22 45.3701 38.22C45.4401 35.83 45.6501 33.36 46.0701 30.96C46.6301 27.37 47.6201 23.85 48.9601 20.46C49.5201 19.19 50.0901 17.92 50.7201 16.66C51.3501 15.32 52.1301 14.12 52.7601 13L64.1701 6.58997C66.2801 8.76997 68.3301 10.96 70.4401 13.14L65.0901 18.28L59.9501 23.14C56.8501 26.17 54.8101 29.83 53.8901 33.85C53.4701 35.33 53.3301 36.88 53.2601 38.43C53.2601 40.82 53.5401 43.15 54.3201 45.47C55.3101 48.5 57.0001 51.39 59.3901 53.92L63.8301 49.62L68.4101 45.25L72.7101 41.16L82.9201 50.81L82.9101 50.83Z" fill="url(#paint1_linear_276_113)"/>
<path d="M46.4301 49.25C45.8501 46.42 45.7601 43.32 45.5101 41.46C45.3701 40.4 45.3701 39.28 45.3701 38.22C45.4401 35.83 45.6501 33.36 46.0701 30.96C46.6301 27.37 47.6201 23.85 48.9601 20.46C49.1501 20.09 51.3901 15.8 56.4301 15.11C61.5001 14.41 64.8201 17.98 65.0901 18.28L59.9501 23.14C56.8501 26.17 54.8101 29.83 53.8901 33.85C53.4701 35.33 53.3301 36.88 53.2601 38.43C53.2601 40.82 53.5401 43.15 54.3201 45.47C55.3101 48.5 57.0001 51.39 59.3901 53.92L63.8301 49.62L68.4101 45.25C68.6301 46.41 69.3601 51.1 66.4901 54.94C62.3301 60.5 53.1301 60.97 49.3901 57.36C47.7801 55.81 47.3301 53.61 46.4301 49.23V49.25Z" fill="url(#paint2_linear_276_113)"/>
<path d="M0.37007 34.47C0.41007 33.33 0.530074 32.19 0.780074 31.04C0.880074 30.54 1.05007 30.1 1.15007 29.59C1.58007 28.07 2.23008 26.53 3.10008 25.11C3.78008 23.92 4.59007 22.72 5.56007 21.65L7.55006 19.36L17.7301 7.81L21.3401 3.75L22.1701 2.76L24.6201 0C26.9901 2.06 29.0901 4.35 30.9301 6.74C31.7201 7.73 32.4401 8.73 33.1701 9.8C34.5401 11.8 35.7201 13.96 36.7601 16.14C39.0801 20.96 40.5101 26.07 41.1701 31.24C41.4001 32.28 41.5001 33.4 41.5901 34.46C41.7201 36.85 41.7301 39.33 41.5101 41.75C41.2601 45.38 40.5801 48.97 39.5301 52.45C39.0801 53.76 38.6201 55.07 38.1001 56.39C37.5801 57.78 36.9101 59.04 36.3801 60.21C34.3801 64.06 32.3601 66.85 31.9101 67.45C30.9001 68.81 29.9301 69.95 29.2301 70.79C28.0001 69.69 26.7801 68.67 25.5601 67.57C23.2701 65.58 21.0401 63.57 18.7501 61.58L23.6401 56L28.3501 50.72C31.1801 47.44 32.9001 43.61 33.4701 39.53C33.7601 38.02 33.7701 36.46 33.7101 34.91C33.5001 32.52 33.0201 30.23 32.0501 27.98C30.8101 25.05 28.8801 22.31 26.2701 19.99L22.2201 24.65L18.0301 29.39L14.1001 33.83L13.6501 34.36L12.4301 35.74C11.9801 36.27 11.4701 36.88 11.0901 37.48C8.56007 40.95 7.28006 45.02 7.08006 49.21C7.08006 49.92 7.06007 50.63 7.12007 51.33C6.81007 51 6.50008 50.75 6.19008 50.42C5.34008 49.57 4.62008 48.65 3.97008 47.64C1.30008 43.77 0.0500604 39.07 0.36006 34.45L0.37007 34.47Z" fill="url(#paint3_linear_276_113)"/>
<path d="M0.37007 34.47C0.41007 33.33 0.530074 32.19 0.780074 31.04C0.880074 30.54 1.05007 30.1 1.15007 29.59C1.58007 28.07 2.23008 26.53 3.10008 25.11C3.78008 23.92 4.59007 22.72 5.56007 21.65L7.55006 19.36L17.7301 7.81L21.3401 3.75L22.1701 2.76L24.6201 0C26.9901 2.06 29.0901 4.35 30.9301 6.74C31.7201 7.73 32.4401 8.73 33.1701 9.8C34.5401 11.8 35.7201 13.96 36.7601 16.14C39.0801 20.96 40.5101 26.07 41.1701 31.24C41.4001 32.28 41.5001 33.4 41.5901 34.46C41.7201 36.85 41.7301 39.33 41.5101 41.75C41.2601 45.38 40.5801 48.97 39.5301 52.45C39.0801 53.76 38.6201 55.07 38.1001 56.39C37.5801 57.78 36.9101 59.04 36.3801 60.21C34.3801 64.06 32.3601 66.85 31.9101 67.45C30.9001 68.81 29.9301 69.95 29.2301 70.79C28.0001 69.69 26.7801 68.67 25.5601 67.57C23.2701 65.58 21.0401 63.57 18.7501 61.58L23.6401 56L28.3501 50.72C31.1801 47.44 32.9001 43.61 33.4701 39.53C33.7601 38.02 33.7701 36.46 33.7101 34.91C33.5001 32.52 33.0201 30.23 32.0501 27.98C30.8101 25.05 28.8801 22.31 26.2701 19.99L22.2201 24.65L18.0301 29.39L14.1001 33.83L13.6501 34.36L12.4301 35.74C11.9801 36.27 11.4701 36.88 11.0901 37.48C8.56007 40.95 7.28006 45.02 7.08006 49.21C7.08006 49.92 7.06007 50.63 7.12007 51.33C6.81007 51 6.50008 50.75 6.19008 50.42C5.34008 49.57 4.62008 48.65 3.97008 47.64C1.30008 43.77 0.0500604 39.07 0.36006 34.45L0.37007 34.47Z" fill="url(#paint4_linear_276_113)"/>
<path d="M0.370117 34.47C0.410117 33.33 0.530121 32.19 0.780121 31.04C0.880121 30.54 1.05012 30.1 1.15012 29.59C1.58012 28.07 2.23013 26.53 3.10013 25.11C3.78013 23.92 4.59012 22.72 5.56012 21.65L7.55011 19.36L17.7301 7.81L21.3401 3.75L22.1701 2.76L24.6201 0C26.9901 2.06 29.0901 4.35 30.9301 6.74C31.7201 7.73 32.4401 8.73 33.1701 9.8C34.5401 11.8 35.7201 13.96 36.7601 16.14C39.0801 20.96 40.5101 26.07 41.1701 31.24C41.4001 32.28 41.5001 33.4 41.5901 34.46C41.7201 36.85 41.7301 39.33 41.5101 41.75C41.2601 45.38 40.5801 48.97 39.5301 52.45C39.0801 53.76 38.6201 55.07 38.1001 56.39C37.5801 57.78 36.9101 59.04 36.3801 60.21C34.3801 64.06 32.3601 66.85 31.9101 67.45C30.9001 68.81 29.9301 69.95 29.2301 70.79C28.0001 69.69 26.7801 68.67 25.5601 67.57C23.2701 65.58 21.0401 63.57 18.7501 61.58L23.6401 56L28.3501 50.72C31.1801 47.44 32.9001 43.61 33.4701 39.53C33.7601 38.02 33.7701 36.46 33.7101 34.91C33.5001 32.52 33.0201 30.23 32.0501 27.98C30.8101 25.05 28.8801 22.31 26.2701 19.99L22.2201 24.65L18.0301 29.39L14.1001 33.83L13.6501 34.36L12.4301 35.74C11.9801 36.27 11.4701 36.88 11.0901 37.48C8.56012 40.95 7.28011 45.02 7.08011 49.21C7.08011 49.92 7.06012 50.63 7.12012 51.33C6.81012 51 6.50012 50.75 6.19012 50.42C5.34012 49.57 4.62012 48.65 3.97012 47.64L8.46011 41.46C8.58011 41.24 8.56012 40.96 8.34012 40.83L0.370117 34.45V34.47Z" fill="url(#paint5_linear_276_113)"/>
<path d="M3.1001 25.1101C3.7801 23.9201 4.59009 22.7201 5.56009 21.6501L7.55008 19.3601L17.7301 7.81006L31.7201 12.6201C31.9401 12.7401 32.2101 12.5801 32.2601 12.3601L33.1701 9.81006C34.5401 11.8101 35.7201 13.9701 36.7601 16.1501C39.0801 20.9701 40.5101 26.0801 41.1701 31.2501C41.4001 32.2901 41.5001 33.4101 41.5901 34.4701C41.7201 36.8601 41.7301 39.3401 41.5101 41.7601C41.2601 45.3901 40.5801 48.9801 39.5301 52.4601C39.0801 53.7701 38.6201 55.0801 38.1001 56.4001C37.5801 57.7901 36.9101 59.0501 36.3801 60.2201L25.5601 67.5801C23.2701 65.5901 21.0401 63.5801 18.7501 61.5901L23.6401 56.0101L28.3501 50.7301C31.1801 47.4501 32.9001 43.6201 33.4701 39.5401C33.7601 38.0301 33.7701 36.4701 33.7101 34.9201C33.5001 32.5301 33.0201 30.2401 32.0501 27.9901C30.8101 25.0601 28.8801 22.3201 26.2701 20.0001L22.2201 24.6601L18.0301 29.4001L14.1001 33.8401L3.1001 25.1001V25.1101Z" fill="url(#paint6_linear_276_113)"/>
<path d="M39.59 23.56C40.39 26.23 40.78 29.47 41.17 31.25C41.4 32.29 41.5 33.41 41.59 34.47C41.72 36.86 41.73 39.34 41.51 41.76C41.26 45.39 40.58 48.98 39.53 52.46C39.14 53 35.26 58.1 29.2 57.84C26.66 57.73 24.73 56.72 23.65 56.02L28.36 50.74C31.19 47.46 32.91 43.63 33.48 39.55C33.77 38.04 33.78 36.48 33.72 34.93C33.51 32.54 33.03 30.25 32.06 28C30.82 25.07 28.89 22.33 26.28 20.01L22.23 24.67L18.04 29.41C15.59 24.44 16.96 18.43 21.22 15.11C25.8 11.54 32.01 12.4 35.31 15.11C37.64 17.02 38.48 19.82 39.6 23.55L39.59 23.56Z" fill="url(#paint7_linear_276_113)"/>
<defs>
<linearGradient id="paint0_linear_276_113" x1="51.687" y1="6.90403" x2="101.4" y2="30.4151" gradientUnits="userSpaceOnUse">
<stop stop-color="#05FFD6"/>
<stop offset="1" stop-color="#00A557"/>
</linearGradient>
<linearGradient id="paint1_linear_276_113" x1="51.102" y1="9.84521" x2="95.1089" y2="32.123" gradientUnits="userSpaceOnUse">
<stop stop-color="#05FFD6"/>
<stop offset="1" stop-color="#00A557"/>
</linearGradient>
<linearGradient id="paint2_linear_276_113" x1="48.9247" y1="17.4328" x2="77.9966" y2="29.7427" gradientUnits="userSpaceOnUse">
<stop stop-color="#05FFD6"/>
<stop offset="1" stop-color="#00A557"/>
</linearGradient>
<linearGradient id="paint3_linear_276_113" x1="6.62856" y1="3.82597" x2="56.3417" y2="27.416" gradientUnits="userSpaceOnUse">
<stop stop-color="#05FFD6"/>
<stop offset="1" stop-color="#00A557"/>
</linearGradient>
<linearGradient id="paint4_linear_276_113" x1="6.62856" y1="3.82597" x2="56.3417" y2="27.416" gradientUnits="userSpaceOnUse">
<stop stop-color="#05FFD6"/>
<stop offset="1" stop-color="#00A557"/>
</linearGradient>
<linearGradient id="paint5_linear_276_113" x1="6.67636" y1="3.82597" x2="56.3467" y2="27.3636" gradientUnits="userSpaceOnUse">
<stop stop-color="#05FFD6"/>
<stop offset="1" stop-color="#00A557"/>
</linearGradient>
<linearGradient id="paint6_linear_276_113" x1="8.98961" y1="11.0404" x2="53.5515" y2="34.3979" gradientUnits="userSpaceOnUse">
<stop stop-color="#05FFD6"/>
<stop offset="1" stop-color="#00A557"/>
</linearGradient>
<linearGradient id="paint7_linear_276_113" x1="20.6227" y1="15.1818" x2="51.1113" y2="28.823" gradientUnits="userSpaceOnUse">
<stop stop-color="#05FFD6"/>
<stop offset="1" stop-color="#00A557"/>
</linearGradient>
</defs>
</svg>
