<svg width="126" height="126" viewBox="0 0 126 126" fill="none" xmlns="http://www.w3.org/2000/svg">
<path d="M126 0H0V126H126V0Z" fill="black"/>
<path d="M103.07 65.78C102.94 66.8 102.75 67.82 102.43 68.84C102.3 69.29 102.11 69.67 101.98 70.12C101.47 71.46 100.77 72.8 99.8699 74.01C99.1699 75.03 98.3399 76.05 97.3799 76.94L95.3999 78.85L85.3199 88.48L81.7499 91.86L80.9199 92.69L78.4999 94.99C76.5199 92.95 74.7999 90.72 73.3299 88.42C72.6899 87.46 72.1199 86.51 71.5399 85.49C70.4599 83.58 69.5599 81.53 68.7999 79.49C67.0799 74.96 66.1799 70.24 65.9899 65.52C65.8599 64.56 65.8599 63.54 65.8599 62.58C65.9199 60.41 66.1199 58.18 66.4999 56.01C67.0099 52.76 67.8999 49.57 69.1199 46.5C69.6299 45.35 70.1399 44.2 70.7199 43.05C71.2899 41.84 71.9999 40.75 72.5699 39.73C74.6799 36.41 76.7199 34.05 77.1599 33.54C78.1799 32.39 79.1399 31.43 79.8399 30.73C80.8599 31.81 81.8799 32.84 82.8999 33.92C84.8099 35.9 86.6599 37.88 88.5799 39.85L83.7299 44.51L79.0699 48.91C76.2599 51.65 74.4099 54.97 73.5799 58.61C73.1999 59.95 73.0699 61.35 73.0099 62.76C73.0099 64.93 73.2699 67.03 73.9699 69.14C74.8599 71.88 76.3899 74.5 78.5599 76.8L82.5799 72.91L86.7299 68.95L90.6199 65.25L91.0699 64.8L92.2799 63.65C92.7299 63.2 93.2399 62.69 93.6199 62.18C96.1699 59.25 97.6399 55.67 98.1499 51.91C98.2099 51.27 98.2799 50.63 98.2799 50C98.5399 50.32 98.7899 50.57 99.0499 50.89C99.7499 51.72 100.33 52.61 100.84 53.57C102.95 57.27 103.71 61.61 103.07 65.76V65.78Z" fill="white"/>
<path d="M99.8801 74.01C99.1801 75.03 98.3501 76.05 97.3901 76.94L95.4101 78.85L85.3301 88.48L73.0801 83.06C72.8901 82.93 72.6301 83.06 72.5701 83.25L71.5501 85.48C68.1801 76.22 66.2901 68.93 66.0001 65.51C65.8701 63.99 65.8701 62.58 65.8701 62.57C65.9301 60.4 66.1301 58.17 66.5101 56C67.0201 52.75 67.9101 49.56 69.1301 46.49C69.6401 45.34 70.1501 44.19 70.7301 43.04C71.3001 41.83 72.0101 40.74 72.5801 39.72L82.9201 33.91C84.8301 35.89 86.6801 37.87 88.6001 39.84L83.7501 44.5L79.0901 48.9C76.2801 51.64 74.4301 54.96 73.6001 58.6C73.2201 59.94 73.0901 61.34 73.0301 62.75C73.0301 64.92 73.2901 67.02 73.9901 69.13C74.8801 71.87 76.4101 74.49 78.5801 76.79L82.6001 72.9L86.7501 68.94L90.6401 65.24L99.8901 73.98L99.8801 74.01Z" fill="white"/>
<path d="M66.8301 72.58C66.3001 70.01 66.2301 67.21 66.0001 65.52C65.8701 64.56 65.8701 63.54 65.8701 62.58C65.9301 60.41 66.1301 58.18 66.5101 56.01C67.0201 52.76 67.9101 49.57 69.1301 46.5C69.3001 46.16 71.3301 42.28 75.8901 41.65C80.4801 41.02 83.4901 44.25 83.7401 44.52L79.0801 48.92C76.2701 51.66 74.4201 54.98 73.5901 58.62C73.2101 59.96 73.0801 61.36 73.0201 62.77C73.0201 64.94 73.2801 67.04 73.9801 69.15C74.8701 71.89 76.4001 74.51 78.5701 76.81L82.5901 72.92L86.7401 68.96C86.9401 70.01 87.6001 74.26 85.0001 77.74C81.2301 82.78 72.9001 83.2 69.5101 79.93C68.0501 78.52 67.6401 76.54 66.8301 72.57V72.58Z" fill="white"/>
<path d="M25.11 59.19C25.15 58.16 25.2499 57.13 25.4799 56.08C25.5699 55.62 25.73 55.23 25.82 54.77C26.21 53.39 26.8 52 27.58 50.71C28.19 49.63 28.9299 48.54 29.8099 47.57L31.6199 45.49L40.8399 35.03L44.11 31.35L44.8699 30.45L47.0899 27.95C49.2399 29.81 51.1399 31.89 52.7999 34.06C53.5199 34.96 54.1699 35.86 54.8299 36.83C56.0699 38.64 57.1399 40.6 58.0799 42.57C60.1799 46.94 61.48 51.56 62.07 56.25C62.28 57.19 62.37 58.21 62.45 59.16C62.57 61.33 62.57 63.57 62.38 65.76C62.15 69.05 61.5299 72.3 60.5899 75.46C60.1799 76.65 59.7699 77.84 59.2999 79.03C58.8299 80.29 58.2299 81.43 57.7399 82.49C55.9299 85.98 54.09 88.5 53.69 89.05C52.77 90.28 51.9 91.32 51.26 92.08C50.15 91.09 49.05 90.16 47.94 89.16C45.86 87.35 43.85 85.5399 41.77 83.7299L46.1999 78.67L50.4599 73.88C53.0199 70.91 54.58 67.44 55.1 63.75C55.37 62.38 55.37 60.97 55.32 59.57C55.13 57.41 54.7 55.33 53.82 53.3C52.69 50.64 50.9499 48.17 48.5899 46.07L44.9199 50.29L41.13 54.59L37.57 58.61L37.16 59.09L36.05 60.34C35.64 60.82 35.1799 61.38 34.8399 61.92C32.5499 65.06 31.39 68.75 31.21 72.54C31.21 73.18 31.19 73.82 31.25 74.46C30.97 74.16 30.69 73.93 30.41 73.64C29.64 72.87 28.9899 72.03 28.3999 71.12C25.9799 67.61 24.85 63.36 25.13 59.17L25.11 59.19Z" fill="white"/>
<path d="M25.11 59.19C25.15 58.16 25.2499 57.13 25.4799 56.08C25.5699 55.62 25.73 55.23 25.82 54.77C26.21 53.39 26.8 52 27.58 50.71C28.19 49.63 28.9299 48.54 29.8099 47.57L31.6199 45.49L40.8399 35.03L44.11 31.35L44.8699 30.45L47.0899 27.95C49.2399 29.81 51.1399 31.89 52.7999 34.06C53.5199 34.96 54.1699 35.86 54.8299 36.83C56.0699 38.64 57.1399 40.6 58.0799 42.57C60.1799 46.94 61.48 51.56 62.07 56.25C62.28 57.19 62.37 58.21 62.45 59.16C62.57 61.33 62.57 63.57 62.38 65.76C62.15 69.05 61.5299 72.3 60.5899 75.46C60.1799 76.65 59.7699 77.84 59.2999 79.03C58.8299 80.29 58.2299 81.43 57.7399 82.49C55.9299 85.98 54.09 88.5 53.69 89.05C52.77 90.28 51.9 91.32 51.26 92.08C50.15 91.09 49.05 90.16 47.94 89.16C45.86 87.35 43.85 85.5399 41.77 83.7299L46.1999 78.67L50.4599 73.88C53.0199 70.91 54.58 67.44 55.1 63.75C55.37 62.38 55.37 60.97 55.32 59.57C55.13 57.41 54.7 55.33 53.82 53.3C52.69 50.64 50.9499 48.17 48.5899 46.07L44.9199 50.29L41.13 54.59L37.57 58.61L37.16 59.09L36.05 60.34C35.64 60.82 35.1799 61.38 34.8399 61.92C32.5499 65.06 31.39 68.75 31.21 72.54C31.21 73.18 31.19 73.82 31.25 74.46C30.97 74.16 30.69 73.93 30.41 73.64C29.64 72.87 28.9899 72.03 28.3999 71.12C25.9799 67.61 24.85 63.36 25.13 59.17L25.11 59.19Z" fill="white"/>
<path d="M25.1101 59.19C25.1501 58.16 25.2501 57.13 25.4801 56.08C25.5701 55.62 25.7301 55.23 25.8201 54.77C26.2101 53.39 26.8001 52 27.5801 50.71C28.1901 49.63 28.9301 48.54 29.8101 47.57L31.6201 45.49L40.8401 35.03L44.1101 31.35L44.8701 30.45L47.0901 27.95C49.2401 29.81 51.1401 31.89 52.8001 34.06C53.5201 34.96 54.1701 35.86 54.8301 36.83C56.0701 38.64 57.1401 40.6 58.0801 42.57C60.1801 46.94 61.4801 51.56 62.0701 56.25C62.2801 57.19 62.3701 58.21 62.4501 59.16C62.5701 61.33 62.5701 63.57 62.3801 65.76C62.1501 69.05 61.5301 72.3 60.5901 75.46C60.1801 76.65 59.7701 77.84 59.3001 79.03C58.8301 80.29 58.2301 81.43 57.7401 82.49C55.9301 85.98 54.0901 88.5 53.6901 89.05C52.7701 90.28 51.9001 91.32 51.2601 92.08C50.1501 91.09 49.0501 90.16 47.9401 89.16C45.8601 87.35 43.8501 85.5399 41.7701 83.7299L46.2001 78.67L50.4601 73.88C53.0201 70.91 54.5801 67.44 55.1001 63.75C55.3701 62.38 55.3701 60.97 55.3201 59.57C55.1301 57.41 54.7001 55.33 53.8201 53.3C52.6901 50.64 50.9501 48.17 48.5901 46.07L44.9201 50.29L41.1301 54.59L37.5701 58.61L37.1601 59.09L36.0501 60.34C35.6401 60.82 35.1801 61.38 34.8401 61.92C32.5501 65.06 31.3901 68.75 31.2101 72.54C31.2101 73.18 31.1901 73.82 31.2501 74.46C30.9701 74.16 30.6901 73.93 30.4101 73.64C29.6401 72.87 28.9901 72.03 28.4001 71.12L32.4601 65.52C32.5701 65.32 32.5501 65.06 32.3501 64.95L25.1301 59.17L25.1101 59.19Z" fill="white"/>
<path d="M27.5801 50.72C28.1901 49.64 28.9301 48.55 29.8101 47.58L31.6201 45.5L40.8401 35.04L53.5101 39.39C53.7101 39.5 53.9601 39.35 54.0001 39.16L54.8301 36.85C56.0701 38.66 57.1401 40.62 58.0801 42.59C60.1801 46.96 61.4801 51.58 62.0701 56.27C62.2801 57.21 62.3701 58.23 62.4501 59.18C62.5701 61.35 62.5701 63.59 62.3801 65.78C62.1501 69.07 61.5301 72.32 60.5901 75.48C60.1801 76.67 59.7701 77.86 59.3001 79.05C58.8301 80.31 58.2301 81.45 57.7401 82.51L47.9401 89.18C45.8601 87.37 43.8501 85.56 41.7701 83.75L46.2001 78.69L50.4601 73.9C53.0201 70.93 54.5801 67.46 55.1001 63.77C55.3701 62.4 55.3701 60.99 55.3201 59.59C55.1301 57.43 54.7001 55.35 53.8201 53.32C52.6901 50.66 50.9501 48.19 48.5901 46.09L44.9201 50.31L41.1301 54.61L37.5701 58.63L27.6001 50.71L27.5801 50.72Z" fill="white"/>
<path d="M60.64 49.31C61.37 51.73 61.71 54.67 62.07 56.27C62.28 57.21 62.37 58.23 62.45 59.18C62.57 61.35 62.57 63.59 62.38 65.78C62.15 69.07 61.53 72.32 60.59 75.48C60.23 75.97 56.72 80.59 51.23 80.35C48.93 80.25 47.18 79.33 46.2 78.7L50.46 73.91C53.02 70.94 54.58 67.47 55.1 63.78C55.37 62.41 55.37 61 55.32 59.6C55.13 57.44 54.7 55.36 53.82 53.33C52.69 50.67 50.95 48.2 48.59 46.1L44.92 50.32L41.13 54.62C38.91 50.12 40.15 44.68 44.01 41.67C48.16 38.44 53.78 39.22 56.77 41.67C58.88 43.4 59.64 45.94 60.66 49.32L60.64 49.31Z" fill="white"/>
</svg>
